<?xml version="1.0" encoding="UTF-8"?>
<!DOCTYPE svg PUBLIC "-//W3C//DTD SVG 1.1//EN" "http://www.w3.org/Graphics/SVG/1.1/DTD/svg11.dtd">
<svg xmlns="http://www.w3.org/2000/svg" version="1.1" width="480px" height="480px" style="shape-rendering:geometricPrecision; text-rendering:geometricPrecision; image-rendering:optimizeQuality; fill-rule:evenodd; clip-rule:evenodd" xmlns:xlink="http://www.w3.org/1999/xlink">
<g><path style="opacity:0.893" fill="#85afd7" d="M 99.5,165.5 C 95.1667,165.5 90.8333,165.5 86.5,165.5C 90.8145,162.939 95.1479,162.939 99.5,165.5 Z"/></g>
<g><path style="opacity:1" fill="#2b77bb" d="M 86.5,165.5 C 90.8333,165.5 95.1667,165.5 99.5,165.5C 107.495,169.837 110.329,176.503 108,185.5C 102.283,195.626 94.1159,198.126 83.5,193C 75.1584,185.283 74.4918,176.95 81.5,168C 83.0779,166.906 84.7446,166.072 86.5,165.5 Z"/></g>
<g><path style="opacity:0.095" fill="#e3eef6" d="M 78.5,201.5 C 74.4862,201.334 70.4862,201.501 66.5,202C 67.056,202.383 67.3893,202.883 67.5,203.5C 65.9519,203.179 65.2852,202.179 65.5,200.5C 70.0323,200.182 74.3656,200.515 78.5,201.5 Z"/></g>
<g><path style="opacity:0.1" fill="#e2eef6" d="M 110.5,201.5 C 114.634,200.515 118.968,200.182 123.5,200.5C 123.737,201.791 123.404,202.791 122.5,203.5C 118.971,201.577 114.971,200.911 110.5,201.5 Z"/></g>
<g><path style="opacity:1" fill="#337abc" d="M 78.5,201.5 C 83.8117,207.146 89.145,212.813 94.5,218.5C 99.855,212.813 105.188,207.146 110.5,201.5C 114.971,200.911 118.971,201.577 122.5,203.5C 115.48,211.189 108.813,219.189 102.5,227.5C 105.524,231.518 108.524,235.518 111.5,239.5C 112.08,241.749 113.413,243.415 115.5,244.5C 118.55,246.549 120.883,249.216 122.5,252.5C 118.366,253.485 114.032,253.818 109.5,253.5C 104.894,247.556 99.8943,241.89 94.5,236.5C 89.7179,242.427 84.7179,248.093 79.5,253.5C 74.9677,253.818 70.6344,253.485 66.5,252.5C 71.1569,246.511 76.1569,240.844 81.5,235.5C 83.5869,234.415 84.9202,232.749 85.5,230.5C 85.9528,229.542 86.6195,228.708 87.5,228C 80.5975,219.94 73.9309,211.774 67.5,203.5C 67.3893,202.883 67.056,202.383 66.5,202C 70.4862,201.501 74.4862,201.334 78.5,201.5 Z"/></g>
<g><path style="opacity:0.735" fill="#f49271" d="M 28.5,216.5 C 39.988,215.505 51.6547,215.172 63.5,215.5C 63.8016,218.059 63.4682,220.393 62.5,222.5C 62.1667,222.5 61.8333,222.5 61.5,222.5C 61.5,220.5 61.5,218.5 61.5,216.5C 50.5,216.5 39.5,216.5 28.5,216.5 Z"/></g>
<g><path style="opacity:0.752" fill="#ef815d" d="M 162.5,222.5 C 162.167,222.5 161.833,222.5 161.5,222.5C 161.5,220.5 161.5,218.5 161.5,216.5C 149.5,216.5 137.5,216.5 125.5,216.5C 125.5,218.5 125.5,220.5 125.5,222.5C 125.167,222.5 124.833,222.5 124.5,222.5C 124.5,220.167 124.5,217.833 124.5,215.5C 137.167,215.5 149.833,215.5 162.5,215.5C 162.5,217.833 162.5,220.167 162.5,222.5 Z"/></g>
<g><path style="opacity:0.743" fill="#f49373" d="M 222.5,216.5 C 226.653,215.834 230.987,215.501 235.5,215.5C 240.222,215.508 244.555,216.175 248.5,217.5C 239.918,216.53 231.251,216.197 222.5,216.5 Z"/></g>
<g><path style="opacity:1" fill="#ef6436" d="M 399.5,221.5 C 399.427,223.027 400.094,224.027 401.5,224.5C 406.642,249.524 396.642,259.357 371.5,254C 363.197,250.399 359.53,244.065 360.5,235C 360.067,230.359 361.067,226.192 363.5,222.5C 364.906,222.027 365.573,221.027 365.5,219.5C 365.973,218.094 366.973,217.427 368.5,217.5C 370.403,217.204 372.07,216.537 373.5,215.5C 380.851,213.918 388.184,214.418 395.5,217C 397.384,218.049 398.718,219.549 399.5,221.5 Z M 390.5,223.5 C 392.173,224.343 393.34,225.676 394,227.5C 394.499,232.489 394.666,237.489 394.5,242.5C 393.167,243.167 392.167,244.167 391.5,245.5C 390.508,245.328 389.842,245.662 389.5,246.5C 383.455,246.697 377.455,246.363 371.5,245.5C 370.737,243.632 369.737,241.965 368.5,240.5C 368.215,235.994 368.548,231.327 369.5,226.5C 370.833,225.833 371.833,224.833 372.5,223.5C 378.5,222.167 384.5,222.167 390.5,223.5 Z"/></g>
<g><path style="opacity:0.651" fill="#f8ae95" d="M 373.5,215.5 C 372.07,216.537 370.403,217.204 368.5,217.5C 369.635,215.787 371.302,215.12 373.5,215.5 Z"/></g>
<g><path style="opacity:1" fill="#ec5a2a" d="M 28.5,216.5 C 39.5,216.5 50.5,216.5 61.5,216.5C 61.5,218.5 61.5,220.5 61.5,222.5C 52.5,222.5 43.5,222.5 34.5,222.5C 34.1746,230.352 34.508,238.018 35.5,245.5C 35.6107,246.117 35.944,246.617 36.5,247C 44.8267,247.5 53.16,247.666 61.5,247.5C 61.5,249.5 61.5,251.5 61.5,253.5C 52.8269,253.666 44.1603,253.5 35.5,253C 33.3716,252.345 31.3716,251.511 29.5,250.5C 28.207,249.158 27.3736,247.491 27,245.5C 26.3333,236.5 26.3333,227.5 27,218.5C 27.2784,217.584 27.7784,216.918 28.5,216.5 Z"/></g>
<g><path style="opacity:1" fill="#e84d1a" d="M 161.5,222.5 C 156.5,222.5 151.5,222.5 146.5,222.5C 146.5,232.833 146.5,243.167 146.5,253.5C 144.5,253.5 142.5,253.5 140.5,253.5C 140.5,243.167 140.5,232.833 140.5,222.5C 135.5,222.5 130.5,222.5 125.5,222.5C 125.5,220.5 125.5,218.5 125.5,216.5C 137.5,216.5 149.5,216.5 161.5,216.5C 161.5,218.5 161.5,220.5 161.5,222.5 Z"/></g>
<g><path style="opacity:1" fill="#ec5c2d" d="M 197.5,240.5 C 195.712,240.215 194.045,240.548 192.5,241.5C 192.624,242.107 192.957,242.44 193.5,242.5C 197.817,245.486 201.817,248.82 205.5,252.5C 202.36,253.641 199.027,253.808 195.5,253C 194.529,251.519 193.196,250.685 191.5,250.5C 190.167,249.833 189.167,248.833 188.5,247.5C 187.738,245.738 186.404,244.738 184.5,244.5C 181.939,243.082 179.272,242.082 176.5,241.5C 176.5,239.167 176.5,236.833 176.5,234.5C 182.69,234.823 188.69,234.49 194.5,233.5C 196.912,233.306 197.912,231.973 197.5,229.5C 197.065,227.297 197.065,225.297 197.5,223.5C 189.684,222.508 181.684,222.174 173.5,222.5C 173.5,232.833 173.5,243.167 173.5,253.5C 171.167,253.5 168.833,253.5 166.5,253.5C 166.178,240.92 166.511,228.42 167.5,216C 179.264,215.043 190.93,215.377 202.5,217C 206.291,223.384 206.458,229.884 203,236.5C 201.549,238.464 199.716,239.797 197.5,240.5 Z"/></g>
<g><path style="opacity:0.761" fill="#f8a98f" d="M 222.5,216.5 C 222.027,217.906 221.027,218.573 219.5,218.5C 219.973,217.094 220.973,216.427 222.5,216.5 Z"/></g>
<g><path style="opacity:1" fill="#e95220" d="M 222.5,216.5 C 231.251,216.197 239.918,216.53 248.5,217.5C 248.5,229.5 248.5,241.5 248.5,253.5C 246.167,253.5 243.833,253.5 241.5,253.5C 241.208,250.624 241.208,247.957 241.5,245.5C 233.684,244.508 225.684,244.174 217.5,244.5C 217.5,247.5 217.5,250.5 217.5,253.5C 215.5,253.5 213.5,253.5 211.5,253.5C 211.279,244.134 211.613,234.801 212.5,225.5C 213.906,225.027 214.573,224.027 214.5,222.5C 215.585,220.413 217.251,219.08 219.5,218.5C 221.027,218.573 222.027,217.906 222.5,216.5 Z M 241.5,223.5 C 241.34,227.622 241.34,231.956 241.5,236.5C 233.833,236.5 226.167,236.5 218.5,236.5C 218.401,233.763 218.735,231.096 219.5,228.5C 220.5,226.833 221.833,225.5 223.5,224.5C 229.455,223.637 235.455,223.303 241.5,223.5 Z"/></g>
<g><path style="opacity:0.714" fill="#f69e80" d="M 347.5,215.5 C 350.167,215.5 352.833,215.5 355.5,215.5C 355.828,226.014 355.494,236.347 354.5,246.5C 354.5,236.5 354.5,226.5 354.5,216.5C 352.5,216.5 350.5,216.5 348.5,216.5C 348.827,226.348 348.494,236.014 347.5,245.5C 347.5,235.5 347.5,225.5 347.5,215.5 Z"/></g>
<g><path style="opacity:1" fill="#e9501e" d="M 354.5,246.5 C 353.946,250.055 351.946,252.388 348.5,253.5C 339.167,253.5 329.833,253.5 320.5,253.5C 320.5,251.5 320.5,249.5 320.5,247.5C 329.349,247.826 338.016,247.493 346.5,246.5C 347.167,246.5 347.5,246.167 347.5,245.5C 348.494,236.014 348.827,226.348 348.5,216.5C 350.5,216.5 352.5,216.5 354.5,216.5C 354.5,226.5 354.5,236.5 354.5,246.5 Z"/></g>
<g><path style="opacity:1" fill="#ee6335" d="M 443.5,221.5 C 443.54,224.881 443.207,228.214 442.5,231.5C 442.389,232.117 442.056,232.617 441.5,233C 447.402,237.574 448.902,243.408 446,250.5C 445.167,251.333 444.333,252.167 443.5,253C 432.598,254.62 421.598,254.954 410.5,254C 409.299,253.097 408.465,251.931 408,250.5C 407.333,239.833 407.333,229.167 408,218.5C 408.374,217.584 408.874,216.75 409.5,216C 419.5,215.333 429.5,215.333 439.5,216C 441.464,217.451 442.797,219.284 443.5,221.5 Z M 436.5,223.5 C 435.949,226.056 434.949,228.389 433.5,230.5C 428.167,230.5 422.833,230.5 417.5,230.5C 417.194,233.385 417.527,236.052 418.5,238.5C 424.176,238.334 429.843,238.501 435.5,239C 436.416,239.278 437.082,239.778 437.5,240.5C 439.378,241.934 440.045,243.601 439.5,245.5C 431.833,245.5 424.167,245.5 416.5,245.5C 416.5,238.167 416.5,230.833 416.5,223.5C 423.167,223.5 429.833,223.5 436.5,223.5 Z"/></g>
<g><path style="opacity:0.222" fill="#fadad0" d="M 248.5,217.5 C 249.495,229.655 249.829,241.989 249.5,254.5C 246.615,254.806 243.948,254.473 241.5,253.5C 243.833,253.5 246.167,253.5 248.5,253.5C 248.5,241.5 248.5,229.5 248.5,217.5 Z"/></g>
<g><path style="opacity:0.514" fill="#f9b39b" d="M 365.5,219.5 C 365.573,221.027 364.906,222.027 363.5,222.5C 363.427,220.973 364.094,219.973 365.5,219.5 Z"/></g>
<g><path style="opacity:0.532" fill="#f6a98f" d="M 390.5,223.5 C 384.5,222.167 378.5,222.167 372.5,223.5C 372.918,222.778 373.584,222.278 374.5,222C 379.5,221.333 384.5,221.333 389.5,222C 390.056,222.383 390.389,222.883 390.5,223.5 Z"/></g>
<g><path style="opacity:0.219" fill="#fad9ce" d="M 61.5,222.5 C 61.8333,222.5 62.1667,222.5 62.5,222.5C 53.6822,223.493 44.6822,223.827 35.5,223.5C 35.5,230.833 35.5,238.167 35.5,245.5C 34.508,238.018 34.1746,230.352 34.5,222.5C 43.5,222.5 52.5,222.5 61.5,222.5 Z"/></g>
<g><path style="opacity:0.224" fill="#fad4c7" d="M 241.5,222.5 C 241.5,222.833 241.5,223.167 241.5,223.5C 235.455,223.303 229.455,223.637 223.5,224.5C 223.918,223.778 224.584,223.278 225.5,223C 230.823,222.501 236.156,222.334 241.5,222.5 Z"/></g>
<g><path style="opacity:0.294" fill="#fac6b4" d="M 399.5,221.5 C 400.906,221.973 401.573,222.973 401.5,224.5C 400.094,224.027 399.427,223.027 399.5,221.5 Z"/></g>
<g><path style="opacity:0.269" fill="#f9d4c8" d="M 197.5,223.5 C 189.833,223.5 182.167,223.5 174.5,223.5C 174.5,233.833 174.5,244.167 174.5,254.5C 171.615,254.806 168.948,254.473 166.5,253.5C 168.833,253.5 171.167,253.5 173.5,253.5C 173.5,243.167 173.5,232.833 173.5,222.5C 181.684,222.174 189.684,222.508 197.5,223.5 Z"/></g>
<g><path style="opacity:0.369" fill="#fac3b1" d="M 214.5,222.5 C 214.573,224.027 213.906,225.027 212.5,225.5C 212.427,223.973 213.094,222.973 214.5,222.5 Z"/></g>
<g><path style="opacity:0.747" fill="#f1835f" d="M 241.5,222.5 C 242.833,227.5 242.833,232.5 241.5,237.5C 241.5,237.167 241.5,236.833 241.5,236.5C 241.34,231.956 241.34,227.622 241.5,223.5C 241.5,223.167 241.5,222.833 241.5,222.5 Z"/></g>
<g><path style="opacity:0.139" fill="#fce8e1" d="M 436.5,223.5 C 429.833,223.5 423.167,223.5 416.5,223.5C 416.5,230.833 416.5,238.167 416.5,245.5C 424.167,245.5 431.833,245.5 439.5,245.5C 431.684,246.492 423.684,246.826 415.5,246.5C 415.5,238.5 415.5,230.5 415.5,222.5C 422.687,222.175 429.687,222.509 436.5,223.5 Z"/></g>
<g><path style="opacity:0.149" fill="#fce2da" d="M 443.5,221.5 C 444.156,222.622 444.489,223.955 444.5,225.5C 444.639,227.883 443.972,229.883 442.5,231.5C 443.207,228.214 443.54,224.881 443.5,221.5 Z"/></g>
<g><path style="opacity:0.407" fill="#f8c0ae" d="M 124.5,222.5 C 124.833,222.5 125.167,222.5 125.5,222.5C 130.5,222.5 135.5,222.5 140.5,222.5C 140.5,232.833 140.5,243.167 140.5,253.5C 142.5,253.5 144.5,253.5 146.5,253.5C 146.5,243.167 146.5,232.833 146.5,222.5C 151.5,222.5 156.5,222.5 161.5,222.5C 161.833,222.5 162.167,222.5 162.5,222.5C 157.684,223.326 152.684,223.826 147.5,224C 147.549,233.957 147.549,244.124 147.5,254.5C 144.833,254.5 142.167,254.5 139.5,254.5C 140.126,244.405 139.459,234.572 137.5,225C 138.167,224.667 138.833,224.333 139.5,224C 134.316,223.826 129.316,223.326 124.5,222.5 Z"/></g>
<g><path style="opacity:0.765" fill="#f48f6d" d="M 369.5,226.5 C 368.548,231.327 368.215,235.994 368.5,240.5C 367.838,238.696 367.505,236.696 367.5,234.5C 367.287,231.473 367.953,228.807 369.5,226.5 Z"/></g>
<g><path style="opacity:0.374" fill="#f7bfad" d="M 58.5,238.5 C 58.5,236.167 58.5,233.833 58.5,231.5C 51.5,231.5 44.5,231.5 37.5,231.5C 37.5,233.833 37.5,236.167 37.5,238.5C 36.5269,236.052 36.1936,233.385 36.5,230.5C 44.1667,230.5 51.8333,230.5 59.5,230.5C 59.8064,233.385 59.4731,236.052 58.5,238.5 Z"/></g>
<g><path style="opacity:0.377" fill="#f8c5b4" d="M 433.5,230.5 C 428.695,231.487 423.695,231.821 418.5,231.5C 418.5,233.833 418.5,236.167 418.5,238.5C 417.527,236.052 417.194,233.385 417.5,230.5C 422.833,230.5 428.167,230.5 433.5,230.5 Z"/></g>
<g><path style="opacity:1" fill="#e95221" d="M 58.5,238.5 C 51.5,238.5 44.5,238.5 37.5,238.5C 37.5,236.167 37.5,233.833 37.5,231.5C 44.5,231.5 51.5,231.5 58.5,231.5C 58.5,233.833 58.5,236.167 58.5,238.5 Z"/></g>
<g><path style="opacity:0.841" fill="#fba386" d="M 298.5,231.5 C 298.5,231.833 298.5,232.167 298.5,232.5C 290.5,232.5 282.5,232.5 274.5,232.5C 274.5,234.167 274.5,235.833 274.5,237.5C 274.167,237.5 273.833,237.5 273.5,237.5C 272.189,235.44 272.189,233.274 273.5,231C 282.01,230.177 290.344,230.343 298.5,231.5 Z"/></g>
<g><path style="opacity:0.655" fill="#fbc0ab" d="M 197.5,229.5 C 197.912,231.973 196.912,233.306 194.5,233.5C 195.512,232.128 196.512,230.795 197.5,229.5 Z"/></g>
<g><path style="opacity:0.612" fill="#9cc0e0" d="M 85.5,230.5 C 84.9202,232.749 83.5869,234.415 81.5,235.5C 82.0798,233.251 83.4131,231.585 85.5,230.5 Z"/></g>
<g><path style="opacity:0.175" fill="#fbddd4" d="M 194.5,233.5 C 188.69,234.49 182.69,234.823 176.5,234.5C 176.5,236.833 176.5,239.167 176.5,241.5C 175.527,239.052 175.194,236.385 175.5,233.5C 181.833,233.5 188.167,233.5 194.5,233.5 Z"/></g>
<g><path style="opacity:0.868" fill="#ef764e" d="M 212.5,225.5 C 211.613,234.801 211.279,244.134 211.5,253.5C 211.167,253.5 210.833,253.5 210.5,253.5C 210.334,245.16 210.5,236.827 211,228.5C 211.232,227.263 211.732,226.263 212.5,225.5 Z"/></g>
<g><path style="opacity:1" fill="#e84d1a" d="M 298.5,232.5 C 298.5,234.167 298.5,235.833 298.5,237.5C 290.5,237.5 282.5,237.5 274.5,237.5C 274.5,235.833 274.5,234.167 274.5,232.5C 282.5,232.5 290.5,232.5 298.5,232.5 Z"/></g>
<g><path style="opacity:0.041" fill="#fdede8" d="M 219.5,228.5 C 218.735,231.096 218.401,233.763 218.5,236.5C 226.167,236.5 233.833,236.5 241.5,236.5C 241.5,236.833 241.5,237.167 241.5,237.5C 233.5,237.5 225.5,237.5 217.5,237.5C 217.336,234.813 217.503,232.146 218,229.5C 218.383,228.944 218.883,228.611 219.5,228.5 Z"/></g>
<g><path style="opacity:0.381" fill="#f8c3b2" d="M 298.5,231.5 C 299.468,233.607 299.802,235.941 299.5,238.5C 290.651,238.826 281.984,238.493 273.5,237.5C 273.833,237.5 274.167,237.5 274.5,237.5C 282.5,237.5 290.5,237.5 298.5,237.5C 298.5,235.833 298.5,234.167 298.5,232.5C 298.5,232.167 298.5,231.833 298.5,231.5 Z"/></g>
<g><path style="opacity:0.004" fill="#fefcfa" d="M 53.5,240.5 C 54.2506,239.427 55.2506,239.26 56.5,240C 55.552,240.483 54.552,240.649 53.5,240.5 Z"/></g>
<g><path style="opacity:0.82" fill="#9ec0e0" d="M 111.5,239.5 C 113.587,240.585 114.92,242.251 115.5,244.5C 113.413,243.415 112.08,241.749 111.5,239.5 Z"/></g>
<g><path style="opacity:0.58" fill="#f8b5a0" d="M 197.5,240.5 C 196.167,241.167 194.833,241.833 193.5,242.5C 192.957,242.44 192.624,242.107 192.5,241.5C 194.045,240.548 195.712,240.215 197.5,240.5 Z"/></g>
<g><path style="opacity:0.784" fill="#fbb49c" d="M 184.5,244.5 C 186.404,244.738 187.738,245.738 188.5,247.5C 186.596,247.262 185.262,246.262 184.5,244.5 Z"/></g>
<g><path style="opacity:0.612" fill="#fab49d" d="M 394.5,242.5 C 394.5,244.5 393.5,245.5 391.5,245.5C 392.167,244.167 393.167,243.167 394.5,242.5 Z"/></g>
<g><path style="opacity:0.008" fill="#fefaf9" d="M 347.5,215.5 C 347.5,225.5 347.5,235.5 347.5,245.5C 347.5,246.167 347.167,246.5 346.5,246.5C 337.5,246.5 328.5,246.5 319.5,246.5C 328.318,245.507 337.318,245.173 346.5,245.5C 346.173,235.319 346.506,225.319 347.5,215.5 Z"/></g>
<g><path style="opacity:0.636" fill="#fab39c" d="M 35.5,245.5 C 44.5009,245.252 53.5009,245.585 62.5,246.5C 62.5,248.833 62.5,251.167 62.5,253.5C 62.1667,253.5 61.8333,253.5 61.5,253.5C 61.5,251.5 61.5,249.5 61.5,247.5C 53.16,247.666 44.8267,247.5 36.5,247C 35.944,246.617 35.6107,246.117 35.5,245.5 Z"/></g>
<g><path style="opacity:0.633" fill="#f9b098" d="M 319.5,246.5 C 328.5,246.5 337.5,246.5 346.5,246.5C 338.016,247.493 329.349,247.826 320.5,247.5C 320.5,249.5 320.5,251.5 320.5,253.5C 329.833,253.5 339.167,253.5 348.5,253.5C 339.009,254.658 329.342,254.825 319.5,254C 318.186,251.395 318.186,248.895 319.5,246.5 Z"/></g>
<g><path style="opacity:0.176" fill="#fad6ca" d="M 371.5,245.5 C 377.455,246.363 383.455,246.697 389.5,246.5C 384.35,247.651 379.016,247.817 373.5,247C 372.584,246.722 371.918,246.222 371.5,245.5 Z"/></g>
<g><path style="opacity:0.175" fill="#fbe7e0" d="M 241.5,245.5 C 233.833,245.5 226.167,245.5 218.5,245.5C 218.5,248.5 218.5,251.5 218.5,254.5C 215.615,254.806 212.948,254.473 210.5,253.5C 210.833,253.5 211.167,253.5 211.5,253.5C 213.5,253.5 215.5,253.5 217.5,253.5C 217.5,250.5 217.5,247.5 217.5,244.5C 225.684,244.174 233.684,244.508 241.5,245.5 Z"/></g>
<g><path style="opacity:0.004" fill="#fdfbf9" d="M 164.5,252.5 C 165.833,253.167 165.833,253.167 164.5,252.5 Z"/></g>
<g><path style="opacity:0.187" fill="#fbd2c5" d="M 29.5,250.5 C 31.3716,251.511 33.3716,252.345 35.5,253C 44.1603,253.5 52.8269,253.666 61.5,253.5C 61.8333,253.5 62.1667,253.5 62.5,253.5C 53.3425,254.658 44.0092,254.824 34.5,254C 32.1192,253.777 30.4525,252.61 29.5,250.5 Z"/></g>
<g><path style="opacity:0.184" fill="#dfebf4" d="M 62.5,246.5 C 63.3091,248.292 63.8091,250.292 64,252.5C 64.7697,251.402 65.603,251.402 66.5,252.5C 70.6344,253.485 74.9677,253.818 79.5,253.5C 73.9767,254.711 68.3101,254.711 62.5,253.5C 62.5,251.167 62.5,248.833 62.5,246.5 Z"/></g>
<g><path style="opacity:0.186" fill="#d1e3f1" d="M 122.5,252.5 C 123.043,252.56 123.376,252.893 123.5,253.5C 118.682,254.812 114.015,254.812 109.5,253.5C 114.032,253.818 118.366,253.485 122.5,252.5 Z"/></g>
<g><path style="opacity:0.196" fill="#fcd3c5" d="M 191.5,250.5 C 193.196,250.685 194.529,251.519 195.5,253C 199.027,253.808 202.36,253.641 205.5,252.5C 206.043,252.56 206.376,252.893 206.5,253.5C 202.541,254.66 198.541,254.827 194.5,254C 193.29,252.961 192.29,251.794 191.5,250.5 Z"/></g>
<g><path style="opacity:0.014" fill="#fafafc" d="M 184.5,285.5 C 189.65,284.349 194.984,284.183 200.5,285C 195.177,285.499 189.844,285.666 184.5,285.5 Z"/></g>
<g><path style="opacity:0.015" fill="#f9fafb" d="M 204.5,285.5 C 209.65,284.349 214.984,284.183 220.5,285C 215.177,285.499 209.844,285.666 204.5,285.5 Z"/></g>
<g><path style="opacity:0.013" fill="#fafafc" d="M 224.5,285.5 C 225.946,284.387 227.613,284.22 229.5,285C 227.866,285.494 226.199,285.66 224.5,285.5 Z"/></g>
<g><path style="opacity:0.015" fill="#fafafc" d="M 237.5,285.5 C 238.946,284.387 240.613,284.22 242.5,285C 240.866,285.494 239.199,285.66 237.5,285.5 Z"/></g>
<g><path style="opacity:0.016" fill="#fafafc" d="M 254.5,285.5 C 258.311,284.355 262.311,284.188 266.5,285C 262.514,285.499 258.514,285.666 254.5,285.5 Z"/></g>
<g><path style="opacity:0.013" fill="#fafafc" d="M 274.5,285.5 C 276.628,284.371 278.961,284.204 281.5,285C 279.19,285.497 276.857,285.663 274.5,285.5 Z"/></g>
<g><path style="opacity:0.014" fill="#fafafc" d="M 285.5,285.5 C 289.981,284.352 294.648,284.185 299.5,285C 294.845,285.499 290.179,285.666 285.5,285.5 Z"/></g>
<g><path style="opacity:0.004" fill="#fcfdfd" d="M 267.5,285.5 C 268.833,286.167 268.833,286.167 267.5,285.5 Z"/></g>
<g><path style="opacity:0.48" fill="#a8a9cc" d="M 220.5,290.5 C 220.5,289.5 220.5,288.5 220.5,287.5C 215.167,287.5 209.833,287.5 204.5,287.5C 204.5,288.5 204.5,289.5 204.5,290.5C 203.566,289.432 203.232,288.099 203.5,286.5C 209.5,286.5 215.5,286.5 221.5,286.5C 221.768,288.099 221.434,289.432 220.5,290.5 Z"/></g>
<g><path style="opacity:0.486" fill="#aeaecf" d="M 229.5,287.5 C 227.517,287.157 226.183,287.824 225.5,289.5C 224.522,289.189 223.855,288.522 223.5,287.5C 225.636,286.207 227.636,286.207 229.5,287.5 Z"/></g>
<g><path style="opacity:0.473" fill="#acacce" d="M 237.5,287.5 C 239.364,286.207 241.364,286.207 243.5,287.5C 243.376,288.107 243.043,288.44 242.5,288.5C 241.081,287.549 239.415,287.216 237.5,287.5 Z"/></g>
<g><path style="opacity:0.482" fill="#bfbfda" d="M 299.5,299.5 C 299.817,295.298 299.483,291.298 298.5,287.5C 294.5,287.5 290.5,287.5 286.5,287.5C 285.596,288.209 285.263,289.209 285.5,290.5C 284.566,289.432 284.232,288.099 284.5,286.5C 289.833,286.5 295.167,286.5 300.5,286.5C 300.818,291.032 300.485,295.366 299.5,299.5 Z"/></g>
<g><path style="opacity:0.265" fill="#b8b8d5" d="M 200.5,286.5 C 200.5,286.833 200.5,287.167 200.5,287.5C 195.167,287.5 189.833,287.5 184.5,287.5C 184.5,293.833 184.5,300.167 184.5,306.5C 183.509,300.021 183.176,293.354 183.5,286.5C 189.167,286.5 194.833,286.5 200.5,286.5 Z"/></g>
<g><path style="opacity:0.997" fill="#5a539b" d="M 220.5,290.5 C 219.448,290.351 218.448,290.517 217.5,291C 218.637,296.082 218.804,301.249 218,306.5C 216.333,307.833 214.667,307.833 213,306.5C 212.501,301.177 212.334,295.844 212.5,290.5C 209.833,290.5 207.167,290.5 204.5,290.5C 204.5,289.5 204.5,288.5 204.5,287.5C 209.833,287.5 215.167,287.5 220.5,287.5C 220.5,288.5 220.5,289.5 220.5,290.5 Z"/></g>
<g><path style="opacity:0.993" fill="#433f8e" d="M 266.5,287.5 C 268.833,287.833 270.167,289.167 270.5,291.5C 270.5,296.5 270.5,301.5 270.5,306.5C 269.167,306.5 267.833,306.5 266.5,306.5C 265.833,301.5 265.167,296.5 264.5,291.5C 263.081,290.549 261.415,290.216 259.5,290.5C 258.512,295.64 258.179,300.974 258.5,306.5C 257.5,306.5 256.5,306.5 255.5,306.5C 255.5,300.167 255.5,293.833 255.5,287.5C 259.167,287.5 262.833,287.5 266.5,287.5 Z"/></g>
<g><path style="opacity:0.999" fill="#58529a" d="M 280.5,306.5 C 279.116,307.801 277.616,307.801 276,306.5C 275.196,301.249 275.363,296.082 276.5,291C 275.906,290.536 275.239,290.369 274.5,290.5C 274.5,289.5 274.5,288.5 274.5,287.5C 276.5,287.5 278.5,287.5 280.5,287.5C 280.5,293.833 280.5,300.167 280.5,306.5 Z"/></g>
<g><path style="opacity:0.347" fill="#b6b7d4" d="M 280.5,306.5 C 280.5,300.167 280.5,293.833 280.5,287.5C 278.5,287.5 276.5,287.5 274.5,287.5C 274.5,288.5 274.5,289.5 274.5,290.5C 273.566,289.432 273.232,288.099 273.5,286.5C 276.167,286.5 278.833,286.5 281.5,286.5C 281.824,293.354 281.491,300.021 280.5,306.5 Z"/></g>
<g><path style="opacity:1" fill="#313285" d="M 200.5,287.5 C 200.5,293.833 200.5,300.167 200.5,306.5C 195.167,306.5 189.833,306.5 184.5,306.5C 184.5,300.167 184.5,293.833 184.5,287.5C 189.833,287.5 195.167,287.5 200.5,287.5 Z M 189.5,290.5 C 191.5,290.5 193.5,290.5 195.5,290.5C 195.5,294.5 195.5,298.5 195.5,302.5C 193.5,302.5 191.5,302.5 189.5,302.5C 189.335,299.15 189.502,295.817 190,292.5C 191.578,292.588 193.078,292.588 194.5,292.5C 192.709,291.83 191.042,291.163 189.5,290.5 Z"/></g>
<g><path style="opacity:0.992" fill="#3f3e8d" d="M 286.5,287.5 C 289.391,289.853 292.724,290.186 296.5,288.5C 297.328,292.796 297.828,297.129 298,301.5C 298.499,296.845 298.666,292.179 298.5,287.5C 299.483,291.298 299.817,295.298 299.5,299.5C 299.625,302.608 298.292,304.608 295.5,305.5C 292.873,306.092 290.206,306.425 287.5,306.5C 286.909,305.849 286.243,305.182 285.5,304.5C 287.969,303.832 290.302,303.165 292.5,302.5C 293.496,302.586 294.329,302.252 295,301.5C 295.81,297.642 295.643,293.976 294.5,290.5C 291.5,290.5 288.5,290.5 285.5,290.5C 285.263,289.209 285.596,288.209 286.5,287.5 Z"/></g>
<g><path style="opacity:1" fill="#20237c" d="M 286.5,287.5 C 290.5,287.5 294.5,287.5 298.5,287.5C 298.666,292.179 298.499,296.845 298,301.5C 297.828,297.129 297.328,292.796 296.5,288.5C 292.724,290.186 289.391,289.853 286.5,287.5 Z"/></g>
<g><path style="opacity:0.005" fill="#fafafc" d="M 205.5,292.5 C 207.364,291.207 209.364,291.207 211.5,292.5C 209.78,292.746 207.78,292.746 205.5,292.5 Z"/></g>
<g><path style="opacity:0.02" fill="#f9fafb" d="M 219.5,291.5 C 220.833,292.167 220.833,292.167 219.5,291.5 Z"/></g>
<g><path style="opacity:0.007" fill="#fcfdfd" d="M 272.5,291.5 C 273.645,295.311 273.812,299.311 273,303.5C 272.501,299.514 272.334,295.514 272.5,291.5 Z"/></g>
<g><path style="opacity:0.007" fill="#fafafc" d="M 289.5,292.5 C 290.708,291.218 292.042,291.218 293.5,292.5C 292.443,292.906 291.109,292.906 289.5,292.5 Z"/></g>
<g><path style="opacity:0.004" fill="#fbfdfd" d="M 241.5,292.5 C 242.833,293.167 242.833,293.167 241.5,292.5 Z"/></g>
<g><path style="opacity:0.564" fill="#a3a4c9" d="M 266.5,287.5 C 262.833,287.5 259.167,287.5 255.5,287.5C 255.5,293.833 255.5,300.167 255.5,306.5C 256.5,306.5 257.5,306.5 258.5,306.5C 258.179,300.974 258.512,295.64 259.5,290.5C 260.919,291.451 262.585,291.784 264.5,291.5C 263.469,292.249 262.302,292.915 261,293.5C 260.667,293.167 260.333,292.833 260,292.5C 259.501,297.489 259.334,302.489 259.5,307.5C 257.833,307.5 256.167,307.5 254.5,307.5C 254.5,300.5 254.5,293.5 254.5,286.5C 258.702,286.183 262.702,286.517 266.5,287.5 Z"/></g>
<g><path style="opacity:0.278" fill="#bcbdd8" d="M 294.5,290.5 C 295.643,293.976 295.81,297.642 295,301.5C 294.329,302.252 293.496,302.586 292.5,302.5C 292.833,301.833 293.167,301.167 293.5,300.5C 294.479,297.375 294.813,294.042 294.5,290.5 Z"/></g>
<g><path style="opacity:0.012" fill="#fafcfc" d="M 240.5,293.5 C 240.833,293.5 241.167,293.5 241.5,293.5C 241.315,294.17 240.981,294.17 240.5,293.5 Z"/></g>
<g><path style="opacity:0.241" fill="#d5d5e6" d="M 270.5,291.5 C 271.488,296.64 271.821,301.974 271.5,307.5C 269.585,307.784 267.919,307.451 266.5,306.5C 267.833,306.5 269.167,306.5 270.5,306.5C 270.5,301.5 270.5,296.5 270.5,291.5 Z"/></g>
<g><path style="opacity:0.004" fill="#fcfefd" d="M 239.5,295.5 C 240.833,296.167 240.833,296.167 239.5,295.5 Z"/></g>
<g><path style="opacity:0.515" fill="#a4a5c9" d="M 229.5,296.5 C 229.5,300.167 229.5,303.833 229.5,307.5C 227.901,307.768 226.568,307.434 225.5,306.5C 226.5,306.5 227.5,306.5 228.5,306.5C 228.187,302.958 228.521,299.625 229.5,296.5 Z"/></g>
<g><path style="opacity:0.012" fill="#fbfbfd" d="M 293.5,300.5 C 292.475,300.103 292.308,299.437 293,298.5C 293.464,299.094 293.631,299.761 293.5,300.5 Z"/></g>
<g><path style="opacity:0.998" fill="#4d4894" d="M 229.5,287.5 C 229.427,289.027 230.094,290.027 231.5,290.5C 231.427,292.027 232.094,293.027 233.5,293.5C 234.167,292.833 234.833,292.167 235.5,291.5C 236.906,291.027 237.573,290.027 237.5,288.5C 237.5,288.167 237.5,287.833 237.5,287.5C 239.415,287.216 241.081,287.549 242.5,288.5C 241.559,290.05 240.893,291.716 240.5,293.5C 239.662,293.842 239.328,294.508 239.5,295.5C 237.188,297.652 237.522,299.652 240.5,301.5C 241.167,302.833 241.833,304.167 242.5,305.5C 241.432,306.434 240.099,306.768 238.5,306.5C 235.517,303.24 232.517,299.906 229.5,296.5C 228.521,299.625 228.187,302.958 228.5,306.5C 227.5,306.5 226.5,306.5 225.5,306.5C 224.357,303.024 224.19,299.358 225,295.5C 227.882,293.826 228.048,291.826 225.5,289.5C 226.183,287.824 227.517,287.157 229.5,287.5 Z"/></g>
<g><path style="opacity:0.569" fill="#9998c2" d="M 231.5,290.5 C 232.906,290.973 233.573,291.973 233.5,293.5C 232.094,293.027 231.427,292.027 231.5,290.5 Z"/></g>
<g><path style="opacity:0.439" fill="#a6a5cb" d="M 237.5,288.5 C 237.573,290.027 236.906,291.027 235.5,291.5C 235.427,289.973 236.094,288.973 237.5,288.5 Z"/></g>
<g><path style="opacity:0.459" fill="#ababce" d="M 229.5,287.5 C 230.906,287.973 231.573,288.973 231.5,290.5C 230.094,290.027 229.427,289.027 229.5,287.5 Z"/></g>
<g><path style="opacity:0.004" fill="#fcfdfd" d="M 202.5,300.5 C 203.598,301.601 203.765,302.934 203,304.5C 202.51,303.207 202.343,301.873 202.5,300.5 Z"/></g>
<g><path style="opacity:0.004" fill="#fbfcfc" d="M 240.5,300.5 C 241.833,301.167 241.833,301.167 240.5,300.5 Z"/></g>
<g><path style="opacity:0.006" fill="#fcfdfd" d="M 289.5,301.5 C 289.897,300.475 290.563,300.308 291.5,301C 290.906,301.464 290.239,301.631 289.5,301.5 Z"/></g>
<g><path style="opacity:0.008" fill="#fafbfb" d="M 300.5,300.5 C 301.833,301.167 301.833,301.167 300.5,300.5 Z"/></g>
<g><path style="opacity:0.22" fill="#d7d8e7" d="M 189.5,290.5 C 191.042,291.163 192.709,291.83 194.5,292.5C 193.078,292.588 191.578,292.588 190,292.5C 189.502,295.817 189.335,299.15 189.5,302.5C 191.5,302.5 193.5,302.5 195.5,302.5C 195.5,298.5 195.5,294.5 195.5,290.5C 196.485,294.634 196.818,298.968 196.5,303.5C 193.833,303.5 191.167,303.5 188.5,303.5C 188.182,298.968 188.515,294.634 189.5,290.5 Z M 189.5,290.5 C 191.5,290.5 193.5,290.5 195.5,290.5C 195.5,294.5 195.5,298.5 195.5,302.5C 193.5,302.5 191.5,302.5 189.5,302.5C 189.335,299.15 189.502,295.817 190,292.5C 191.578,292.588 193.078,292.588 194.5,292.5C 192.709,291.83 191.042,291.163 189.5,290.5 Z"/></g>
<g><path style="opacity:0.007" fill="#fcfcfd" d="M 190.5,299.5 C 191.766,300.09 193.099,300.59 194.5,301C 192.537,301.844 191.204,301.344 190.5,299.5 Z"/></g>
<g><path style="opacity:0.005" fill="#fafbfc" d="M 210.5,303.5 C 211.573,304.251 211.74,305.251 211,306.5C 210.517,305.552 210.351,304.552 210.5,303.5 Z"/></g>
<g><path style="opacity:0.153" fill="#bbbbd7" d="M 292.5,302.5 C 290.302,303.165 287.969,303.832 285.5,304.5C 286.243,305.182 286.909,305.849 287.5,306.5C 286.5,306.5 285.5,306.5 284.5,306.5C 284.5,305.167 284.5,303.833 284.5,302.5C 287.167,302.5 289.833,302.5 292.5,302.5 Z"/></g>
<g><path style="opacity:0.027" fill="#f1f1f6" d="M 200.5,286.5 C 201.491,293.313 201.825,300.313 201.5,307.5C 195.642,307.822 189.975,307.489 184.5,306.5C 189.833,306.5 195.167,306.5 200.5,306.5C 200.5,300.167 200.5,293.833 200.5,287.5C 200.5,287.167 200.5,286.833 200.5,286.5 Z"/></g>
<g><path style="opacity:0.008" fill="#f6f6fa" d="M 242.5,305.5 C 243.043,305.56 243.376,305.893 243.5,306.5C 241.701,307.788 240.035,307.788 238.5,306.5C 240.099,306.768 241.432,306.434 242.5,305.5 Z"/></g>
<g><path style="opacity:0.029" fill="#e0dfec" d="M 295.5,305.5 C 293.007,307.584 290.34,307.917 287.5,306.5C 290.206,306.425 292.873,306.092 295.5,305.5 Z"/></g>
</svg>
